<svg width="32" height="32" viewBox="0 0 32 32" fill="none" xmlns="http://www.w3.org/2000/svg">
<g clip-path="url(#clip0_15_4694)">
<path fill-rule="evenodd" clip-rule="evenodd" d="M0 16C0 28.078 2.824 30.6667 16 30.6667C29.176 30.6667 32 28.078 32 16C32 12.6805 31.7867 10.0778 31.2037 8.04869C29.7113 9.545 27.8279 11.3443 25.7823 12.947C22.8811 15.2201 19.3673 17.3333 16 17.3333C12.6327 17.3333 9.11896 15.2201 6.21769 12.947C4.17208 11.3443 2.28871 9.545 0.796207 8.04868C0.213309 10.0778 0 12.6805 0 16ZM10.6667 21.3333C9.93029 21.3333 9.33333 21.9303 9.33333 22.6667C9.33333 23.4031 9.93029 24 10.6667 24H21.3333C22.0697 24 22.6667 23.4031 22.6667 22.6667C22.6667 21.9303 22.0697 21.3333 21.3333 21.3333H10.6667Z" fill="#837771"/>
<path d="M24.1378 10.8479C26.4072 9.06978 28.4795 7.02309 30.0418 5.43082C27.9242 2.23014 23.7552 1.33334 16 1.33334C8.24484 1.33334 4.07591 2.23014 1.95825 5.43082C3.5206 7.02309 5.59284 9.06978 7.86235 10.8479C10.7211 13.0876 13.6074 14.6667 16 14.6667C18.3927 14.6667 21.279 13.0876 24.1378 10.8479Z" fill="#837771"/>
</g>
<defs>
<clipPath id="clip0_15_4694">
<rect width="32" height="32" fill="white"/>
</clipPath>
</defs>
</svg>
