<svg width="32" height="32" viewBox="0 0 32 32" fill="none" xmlns="http://www.w3.org/2000/svg">
<g clip-path="url(#clip0_15_4670)">
<path d="M14.6666 23.3333C14.6683 21.6353 15.1688 19.9751 16.1059 18.559C17.043 17.1429 18.3755 16.0333 19.9379 15.368C21.5002 14.7028 23.2236 14.5111 24.8939 14.8169C26.5642 15.1227 28.1079 15.9124 29.3333 17.088V4.00002C29.3333 2.93915 28.9119 1.92173 28.1617 1.17159C27.4116 0.421443 26.3942 1.52588e-05 25.3333 1.52588e-05L9.33329 1.52588e-05C7.56583 0.0021324 5.87137 0.705191 4.62159 1.95498C3.3718 3.20476 2.66874 4.89922 2.66663 6.66668V25.3333C2.66874 27.1008 3.3718 28.7953 4.62159 30.0451C5.87137 31.2948 7.56583 31.9979 9.33329 32H23.3333C21.0347 32 18.8303 31.0869 17.205 29.4616C15.5797 27.8363 14.6666 25.6319 14.6666 23.3333ZM9.33329 9.33335C9.33329 8.97973 9.47377 8.64059 9.72382 8.39054C9.97387 8.14049 10.313 8.00002 10.6666 8.00002H21.3333C21.6869 8.00002 22.0261 8.14049 22.2761 8.39054C22.5262 8.64059 22.6666 8.97973 22.6666 9.33335C22.6666 9.68697 22.5262 10.0261 22.2761 10.2762C22.0261 10.5262 21.6869 10.6667 21.3333 10.6667H10.6666C10.313 10.6667 9.97387 10.5262 9.72382 10.2762C9.47377 10.0261 9.33329 9.68697 9.33329 9.33335ZM31.6093 31.6094C31.3593 31.8593 31.0202 31.9997 30.6666 31.9997C30.3131 31.9997 29.974 31.8593 29.724 31.6094L26.5146 28.4C25.5642 29.0066 24.4608 29.3303 23.3333 29.3333C22.1466 29.3333 20.9866 28.9815 19.9999 28.3222C19.0132 27.6629 18.2441 26.7258 17.79 25.6294C17.3359 24.5331 17.2171 23.3267 17.4486 22.1628C17.6801 20.9989 18.2515 19.9298 19.0907 19.0907C19.9298 18.2516 20.9989 17.6801 22.1628 17.4486C23.3266 17.2171 24.533 17.3359 25.6294 17.7901C26.7257 18.2442 27.6628 19.0132 28.3221 19.9999C28.9814 20.9866 29.3333 22.1467 29.3333 23.3333C29.3303 24.4609 29.0066 25.5643 28.4 26.5147L31.6093 29.724C31.8593 29.9741 31.9997 30.3131 31.9997 30.6667C31.9997 31.0202 31.8593 31.3593 31.6093 31.6094Z" fill="#837771"/>
</g>
<defs>
<clipPath id="clip0_15_4670">
<rect width="32" height="32" fill="white"/>
</clipPath>
</defs>
</svg>
