<svg width="32" height="32" viewBox="0 0 32 32" fill="none" xmlns="http://www.w3.org/2000/svg">
<path d="M18.5334 2.93333H13.8667C8.00007 2.93333 3.20007 7.73334 3.20007 13.7333V21.7333C3.20007 25.8667 5.60007 27.6 7.06674 28.2667C8.80007 29.0667 10.8001 29.0667 12.9334 29.0667H13.8667H19.4667C24.0001 29.0667 29.2001 28.2667 29.2001 21.7333V13.7333C29.3334 7.73334 24.5334 2.93333 18.5334 2.93333ZM10.9334 14C10.4001 14 9.86674 13.4667 9.86674 12.9333C9.86674 12.4 10.4001 11.8667 10.9334 11.8667C11.4667 11.8667 12.0001 12.4 12.0001 12.9333C12.0001 13.6 11.4667 14 10.9334 14ZM21.6001 11.8667C22.1334 11.8667 22.6667 12.4 22.6667 12.9333C22.6667 13.4667 22.1334 14 21.6001 14C21.0667 14 20.5334 13.4667 20.5334 12.9333C20.5334 12.4 20.9334 11.8667 21.6001 11.8667ZM24.9334 18.2667C24.9334 21.6 22.2667 24.2667 18.9334 24.2667C18.6667 24.2667 18.2667 24 18.2667 23.6C18.2667 23.2 18.5334 22.9333 18.9334 22.9333C21.6001 22.9333 23.7334 20.8 23.7334 18.1333V17.0667C23.7334 16.8 24.0001 16.5333 24.4001 16.5333C24.6667 16.5333 25.0667 16.8 25.0667 17.0667V18.2667H24.9334Z" fill="#837771"/>
</svg>
