<svg width="32" height="32" viewBox="0 0 32 32" fill="none" xmlns="http://www.w3.org/2000/svg">
<path d="M3.46004 18.4L3.52004 27.66C3.51599 28.5401 3.8611 29.386 4.4797 30.0121C5.0983 30.6382 5.93991 30.9934 6.82004 31H25.18C26.0602 30.9934 26.9018 30.6382 27.5204 30.0121C28.139 29.386 28.4841 28.5401 28.48 27.66V18.4H28.54C29.0262 18.4045 29.5023 18.2617 29.9057 17.9904C30.3091 17.719 30.6209 17.3319 30.8 16.88C30.9964 16.4268 31.0519 15.925 30.9591 15.4399C30.8664 14.9548 30.6298 14.5088 30.28 14.16L18.34 1.98C17.7119 1.37378 16.873 1.03499 16 1.03499C15.1271 1.03499 14.2882 1.37378 13.66 1.98L1.72004 14.16C1.37033 14.5088 1.1337 14.9548 1.04095 15.4399C0.948208 15.925 1.00364 16.4268 1.20004 16.88C1.3792 17.3319 1.691 17.719 2.0944 17.9904C2.4978 18.2617 2.97391 18.4045 3.46004 18.4ZM9.61524 19.0772C9.86023 18.9763 10.1352 18.9761 10.3803 19.0769C10.6253 19.1777 10.8207 19.3711 10.9238 19.6152C11.3413 20.6175 12.0461 21.4738 12.9494 22.0762C13.8528 22.6786 14.9143 23 16 23C17.0858 23 18.1473 22.6786 19.0506 22.0762C19.954 21.4738 20.6588 20.6175 21.0762 19.6152C21.1783 19.3702 21.3735 19.1758 21.6189 19.0747C21.8643 18.9736 22.1398 18.9741 22.3848 19.0762C22.6298 19.1783 22.8243 19.3735 22.9254 19.6189C23.0264 19.8643 23.0259 20.1398 22.9238 20.3848C22.3541 21.7516 21.3927 22.9192 20.1605 23.7405C18.9284 24.5617 17.4808 25 16 25C14.5193 25 13.0717 24.5617 11.8395 23.7405C10.6074 22.9192 9.64594 21.7516 9.07624 20.3848C8.97468 20.1399 8.97439 19.8647 9.07543 19.6196C9.17647 19.3745 9.3706 19.1794 9.61524 19.0772Z" fill="black"/>
</svg>
