<svg width="21" height="21" viewBox="0 0 21 21" fill="none" xmlns="http://www.w3.org/2000/svg">
<path d="M19.0552 8.09775L11.7767 10.5175C11.1801 10.7185 10.7152 11.1834 10.5175 11.7767L8.09445 19.0585C7.47475 20.9376 4.78156 20.842 4.28726 18.9235L0.0642977 2.48394C-0.311465 1.02024 1.02024 -0.311465 2.48394 0.0642977L18.9236 4.28717C20.842 4.78157 20.9376 7.47476 19.0552 8.09775Z" fill="#E9293A"/>
<path d="M18.9239 4.28723L2.48431 0.0643528C1.73705 -0.127431 1.0256 0.127207 0.556885 0.615884L10.9728 11.0318C11.1932 10.8021 11.4655 10.6225 11.7771 10.5175L19.0556 8.09781C20.9379 7.47481 20.8423 4.78162 18.9239 4.28723Z" fill="#D42032"/>
<path d="M3.93111 7.20769C4.0367 7.31328 4.11574 7.4451 4.15871 7.60011L5.46402 12.4657C5.58925 12.9338 5.3124 13.415 4.84424 13.5404C4.37617 13.6656 3.8949 13.3887 3.76967 12.9207L2.46766 8.05176C2.34227 7.59029 2.61921 7.10894 3.08728 6.98371C3.40051 6.9013 3.72026 6.99683 3.93111 7.20769Z" fill="#FE6559"/>
</svg>
