<svg width="16" height="16" viewBox="0 0 16 16" fill="none" xmlns="http://www.w3.org/2000/svg">
<path d="M14.9333 6.34608L9.22925 8.24238C8.76164 8.39993 8.39734 8.76423 8.24238 9.22925L6.3435 14.9359C5.85785 16.4084 3.74724 16.3335 3.35986 14.83L0.0503891 1.94662C-0.24409 0.799548 0.799548 -0.24409 1.94662 0.0503891L14.8301 3.35979C16.3335 3.74724 16.4084 5.85785 14.9333 6.34608Z" fill="#E9293A"/>
<path d="M14.8302 3.35983L1.94677 0.0504307C1.36115 -0.0998676 0.803605 0.0996887 0.436279 0.482657L8.59907 8.64544C8.77176 8.46544 8.98519 8.32466 9.2294 8.24242L14.9334 6.34612C16.4086 5.85789 16.3337 3.74728 14.8302 3.35983Z" fill="#D42032"/>
<path d="M3.08068 5.64856C3.16343 5.73131 3.22536 5.83462 3.25904 5.9561L4.28199 9.76919C4.38013 10.136 4.16317 10.5132 3.79628 10.6114C3.42946 10.7095 3.0523 10.4925 2.95416 10.1257L1.93379 6.31005C1.83553 5.9484 2.05256 5.57117 2.41938 5.47303C2.66485 5.40845 2.91543 5.48332 3.08068 5.64856Z" fill="#FE6559"/>
</svg>
