<svg width="24" height="24" viewBox="0 0 24 24" fill="none" xmlns="http://www.w3.org/2000/svg">
<path d="M19.3577 0C21.9108 0 23.9966 2.08574 23.9966 4.63886V19.3577C23.9966 21.9143 21.9108 24 19.3577 24H4.63893C2.08581 24 6.86646e-05 21.9143 6.86646e-05 19.3611V4.63886C6.86646e-05 2.08574 2.08581 0 4.63893 0H19.3577ZM19.3577 1.84857H4.63893C3.07637 1.84857 1.84166 3.0763 1.84166 4.63886V19.3577C1.83794 19.7257 1.90763 20.0909 2.04667 20.4317C2.18571 20.7725 2.3913 21.0822 2.65143 21.3427C2.91155 21.6031 3.22099 21.8091 3.56165 21.9486C3.90231 22.088 4.26736 22.1582 4.63544 22.1549H19.3577C19.7252 22.1577 20.0896 22.0873 20.4296 21.9479C20.7696 21.8084 21.0785 21.6027 21.3382 21.3426C21.5979 21.0826 21.8033 20.7735 21.9423 20.4333C22.0813 20.0931 22.1513 19.7286 22.148 19.3611V4.63886C22.148 3.0763 20.9203 1.84857 19.3577 1.84857ZM9.25686 5.53175C9.49787 5.53796 9.72692 5.63809 9.89514 5.81078L15.4199 11.3495C15.5914 11.5226 15.6876 11.7564 15.6876 12C15.6876 12.2436 15.5914 12.4774 15.4199 12.6505L9.89514 18.1892C9.81194 18.2843 9.71013 18.3613 9.59599 18.4155C9.48185 18.4697 9.35781 18.4999 9.23154 18.5043C9.10526 18.5087 8.97943 18.4871 8.86181 18.441C8.7442 18.3948 8.6373 18.325 8.54772 18.2359C8.45813 18.1468 8.38777 18.0403 8.34098 17.9229C8.29418 17.8055 8.27195 17.6798 8.27565 17.5535C8.27935 17.4272 8.3089 17.303 8.36249 17.1886C8.41607 17.0742 8.49255 16.972 8.58719 16.8882L13.4597 11.9948L8.58719 7.11176C8.45615 6.98165 8.36709 6.81528 8.33148 6.63408C8.29587 6.45289 8.31536 6.26518 8.38742 6.09517C8.45948 5.92515 8.58081 5.78061 8.73578 5.68019C8.89075 5.57977 9.07224 5.52807 9.25686 5.53175Z" fill="white"/>
</svg>
