<svg width="32" height="32" viewBox="0 0 32 32" fill="none" xmlns="http://www.w3.org/2000/svg">
<path d="M23 8H9C6.87827 8 4.84344 8.84285 3.34315 10.3431C1.84285 11.8434 1 13.8783 1 16C1 18.1217 1.84285 20.1566 3.34315 21.6569C4.84344 23.1571 6.87827 24 9 24H23C25.1217 24 27.1566 23.1571 28.6569 21.6569C30.1571 20.1566 31 18.1217 31 16C31 13.8783 30.1571 11.8434 28.6569 10.3431C27.1566 8.84285 25.1217 8 23 8ZM9 22C7.81331 22 6.65327 21.6481 5.66658 20.9888C4.67988 20.3295 3.91085 19.3925 3.45672 18.2961C3.0026 17.1997 2.88378 15.9933 3.11529 14.8295C3.3468 13.6656 3.91824 12.5965 4.75736 11.7574C5.59647 10.9182 6.66557 10.3468 7.82946 10.1153C8.99334 9.88378 10.1997 10.0026 11.2961 10.4567C12.3925 10.9108 13.3295 11.6799 13.9888 12.6666C14.6481 13.6533 15 14.8133 15 16C14.9987 17.5909 14.3662 19.1163 13.2412 20.2412C12.1163 21.3662 10.5909 21.9987 9 22Z" fill="black"/>
</svg>
