<svg width="32" height="32" viewBox="0 0 32 32" fill="none" xmlns="http://www.w3.org/2000/svg">
<path d="M27.2928 2.66645H4.70609C4.4522 2.66292 4.2001 2.70944 3.96418 2.80336C3.72827 2.89727 3.51316 3.03674 3.33116 3.2138C3.14915 3.39085 3.0038 3.60203 2.90342 3.83526C2.80303 4.06849 2.74957 4.31922 2.74609 4.57311V27.4264C2.74957 27.6803 2.80303 27.9311 2.90342 28.1643C3.0038 28.3975 3.14915 28.6087 3.33116 28.7858C3.51316 28.9628 3.72827 29.1023 3.96418 29.1962C4.2001 29.2901 4.4522 29.3366 4.70609 29.3331H27.2928C27.5467 29.3366 27.7988 29.2901 28.0347 29.1962C28.2706 29.1023 28.4857 28.9628 28.6677 28.7858C28.8497 28.6087 28.9951 28.3975 29.0954 28.1643C29.1958 27.9311 29.2493 27.6803 29.2528 27.4264V4.57311C29.2493 4.31922 29.1958 4.06849 29.0954 3.83526C28.9951 3.60203 28.8497 3.39085 28.6677 3.2138C28.4857 3.03674 28.2706 2.89727 28.0347 2.80336C27.7988 2.70944 27.5467 2.66292 27.2928 2.66645ZM10.7861 24.9864H6.78609V12.9864H10.7861V24.9864ZM8.78609 11.3064C8.23444 11.3064 7.70539 11.0873 7.31531 10.6972C6.92524 10.3072 6.70609 9.7781 6.70609 9.22645C6.70609 8.6748 6.92524 8.14574 7.31531 7.75566C7.70539 7.36559 8.23444 7.14645 8.78609 7.14645C9.07902 7.11323 9.37566 7.14225 9.65659 7.23162C9.93753 7.321 10.1964 7.4687 10.4163 7.66506C10.6362 7.86142 10.8121 8.10202 10.9326 8.37109C11.053 8.64016 11.1153 8.93164 11.1153 9.22645C11.1153 9.52125 11.053 9.81273 10.9326 10.0818C10.8121 10.3509 10.6362 10.5915 10.4163 10.7878C10.1964 10.9842 9.93753 11.1319 9.65659 11.2213C9.37566 11.3106 9.07902 11.3397 8.78609 11.3064ZM25.2128 24.9864H21.2128V18.5464C21.2128 16.9331 20.6394 15.8798 19.1861 15.8798C18.7363 15.8831 18.2983 16.0242 17.9312 16.284C17.5641 16.5439 17.2854 16.91 17.1328 17.3331C17.0284 17.6465 16.9832 17.9765 16.9994 18.3064V24.9731H12.9994C12.9994 24.9731 12.9994 14.0664 12.9994 12.9731H16.9994V14.6664C17.3628 14.0359 17.8913 13.5165 18.528 13.164C19.1647 12.8116 19.8855 12.6396 20.6128 12.6664C23.2794 12.6664 25.2128 14.3864 25.2128 18.0798V24.9864Z" fill="white"/>
</svg>
