<svg width="32" height="32" viewBox="0 0 32 32" fill="none" xmlns="http://www.w3.org/2000/svg">
<path d="M26 2C28.21 2 30 3.79 30 6V26C30 28.21 28.21 30 26 30H6C3.79 30 2 28.21 2 26V6C2 3.79 3.79 2 6 2H26ZM5.41797 9.09668C5.27868 9.09668 5.13935 9.15264 5.03906 9.25293C4.93878 9.35322 4.88281 9.48698 4.88281 9.63184C4.89396 11.8382 4.92733 20.1675 4.93848 22.3682C4.93852 22.6634 5.17837 22.9033 5.47363 22.9033L5.47949 22.8975H12.1816C14.4158 22.8975 16.2324 21.0808 16.2324 18.8467V18.3564C16.2323 15.9943 13.8193 15.3701 13.8193 15.3701C13.8193 15.3701 15.6189 14.6295 15.6191 12.418V12.2891C15.619 10.5231 14.1928 9.09668 12.4268 9.09668H5.41797ZM22.166 12.2891C18.3997 12.2891 17.2461 15.638 17.2461 17.5713C17.2462 20.4515 19.0233 22.9032 22.416 22.9033C25.809 22.9033 26.5001 20.6015 26.6729 19.749C26.6838 19.6712 26.6614 19.5937 26.6113 19.5381C26.5612 19.4824 26.4891 19.4483 26.4111 19.4482C25.9322 19.4427 25.0412 19.4434 24.6621 19.4434C24.5507 19.4434 24.4447 19.5101 24.3945 19.6104C24.2051 19.9502 23.6249 20.6803 22.3379 20.6914C20.3442 20.7079 20.0264 19.2096 19.9873 18.5576C19.9873 18.4852 20.0153 18.4122 20.0654 18.3564C20.1155 18.3009 20.1878 18.2735 20.2656 18.2734C21.3353 18.2623 25.1573 18.2617 26.5781 18.2617C26.723 18.2617 26.8567 18.2058 26.957 18.1055C27.0571 18.0053 27.1132 17.8666 27.1133 17.7275C27.1133 17.4824 27.4362 12.2952 22.166 12.2949V12.2891ZM11.3965 16.6855C12.4381 16.6858 13.2793 17.5266 13.2793 18.5684V18.5791C13.2793 19.6153 12.4382 20.4627 11.3965 20.4629H8.4209C8.28162 20.4629 8.14227 20.4069 8.04199 20.3066C7.94173 20.2064 7.88574 20.0726 7.88574 19.9277V17.2197C7.88593 16.9246 8.12574 16.6856 8.4209 16.6855H11.3965ZM22.2051 14.4062C23.3805 14.4065 24.333 15.3597 24.333 16.5352H19.9424C19.9424 15.3596 20.8957 14.4062 22.0713 14.4062H22.2051ZM11.0898 11.498C11.97 11.4982 12.6826 12.2116 12.6826 13.0918C12.6825 13.9719 11.97 14.6854 11.0898 14.6855H8.4209C8.12568 14.6855 7.88584 14.4456 7.88574 14.1504V12.0332C7.88574 11.7379 8.12562 11.4981 8.4209 11.498H11.0898ZM19.3574 9.09668C19.2182 9.09674 19.0846 9.1527 18.9844 9.25293C18.8841 9.35316 18.8282 9.48677 18.8281 9.62598V10.5342C18.8281 10.6734 18.8842 10.807 18.9844 10.9072C19.0846 11.0075 19.2182 11.0634 19.3574 11.0635H24.9902C25.1295 11.0635 25.263 11.0075 25.3633 10.9072C25.4636 10.8069 25.5195 10.6735 25.5195 10.5342V9.62598C25.5195 9.48677 25.4635 9.35316 25.3633 9.25293C25.263 9.15276 25.1294 9.09668 24.9902 9.09668H19.3574Z" fill="white"/>
</svg>
