<svg width="47" height="47" viewBox="0 0 47 47" fill="none" xmlns="http://www.w3.org/2000/svg">
<path d="M33.5314 11.6631H13.1211C10.0278 11.6631 7.06128 12.8919 4.87403 15.0791C2.68679 17.2664 1.45801 20.2329 1.45801 23.3261C1.45801 26.4194 2.68679 29.3859 4.87403 31.5731C7.06128 33.7604 10.0278 34.9892 13.1211 34.9892H33.5314C36.6246 34.9892 39.5911 33.7604 41.7784 31.5731C43.9656 29.3859 45.1944 26.4194 45.1944 23.3261C45.1944 20.2329 43.9656 17.2664 41.7784 15.0791C39.5911 12.8919 36.6246 11.6631 33.5314 11.6631ZM13.1211 32.0734C11.391 32.0734 9.6998 31.5604 8.26132 30.5992C6.82284 29.6381 5.70168 28.2719 5.03962 26.6736C4.37755 25.0752 4.20433 23.3164 4.54185 21.6196C4.87936 19.9228 5.71246 18.3642 6.93579 17.1409C8.15912 15.9175 9.71773 15.0844 11.4145 14.7469C13.1113 14.4094 14.8701 14.5826 16.4685 15.2447C18.0668 15.9068 19.433 17.0279 20.3941 18.4664C21.3553 19.9049 21.8683 21.5961 21.8683 23.3261C21.8665 25.6455 20.9443 27.8693 19.3043 29.5093C17.6642 31.1494 15.4404 32.0716 13.1211 32.0734Z" fill="black"/>
</svg>
