<svg width="32" height="32" viewBox="0 0 32 32" fill="none" xmlns="http://www.w3.org/2000/svg">
<path d="M15.0518 15.4604C15.3307 15.6525 15.6613 15.7554 16 15.7554C16.3387 15.7554 16.6693 15.6525 16.9482 15.4604L29.5758 6.71875C29.1314 5.99188 28.5081 5.39101 27.7655 4.97345C27.0229 4.55589 26.1856 4.33556 25.3337 4.3335H6.66699C5.81501 4.33556 4.97776 4.55589 4.23512 4.97347C3.49249 5.39105 2.86923 5.99194 2.4248 6.71883L15.0518 15.4604Z" fill="white"/>
<path d="M18.0869 17.105C17.4729 17.5273 16.7452 17.7534 16 17.7534C15.2548 17.7534 14.5271 17.5273 13.9131 17.105L1.73373 8.67297C1.69661 8.89139 1.67432 9.11207 1.66699 9.33349V22.6668C1.66844 23.9925 2.19569 25.2634 3.13306 26.2008C4.07042 27.1381 5.34135 27.6654 6.66699 27.6668H25.3337C26.6593 27.6654 27.9302 27.1381 28.8676 26.2008C29.805 25.2634 30.3322 23.9925 30.3337 22.6668V9.33349C30.3262 9.11204 30.3039 8.89133 30.267 8.67285L18.0869 17.105Z" fill="white"/>
</svg>
