<svg width="34" height="34" viewBox="0 0 34 34" fill="none" xmlns="http://www.w3.org/2000/svg">
<path d="M26.8877 0C30.434 0 33.3311 2.89709 33.3311 6.44337V26.8878C33.3311 30.4389 30.434 33.336 26.8877 33.336H6.4433C2.89703 33.336 -6.75405e-05 30.4389 -6.75405e-05 26.8926V6.44337C-6.75405e-05 2.89709 2.89703 0 6.4433 0H26.8877ZM26.8877 2.56766H6.4433C4.2729 2.56766 2.5579 4.27297 2.5579 6.44337V26.8878C2.55273 27.399 2.64954 27.9062 2.84266 28.3796C3.03579 28.853 3.32135 29.2832 3.68266 29.645C4.04398 30.0067 4.47379 30.2928 4.94697 30.4865C5.42014 30.6803 5.92719 30.7777 6.43846 30.7732H26.8877C27.3981 30.777 27.9043 30.6793 28.3766 30.4856C28.8488 30.2919 29.2779 30.0061 29.6386 29.6449C29.9993 29.2837 30.2846 28.8544 30.4777 28.3818C30.6708 27.9093 30.7679 27.403 30.7634 26.8926V6.44337C30.7634 4.27297 29.0581 2.56766 26.8877 2.56766ZM12.8576 7.6836C13.1924 7.69222 13.5105 7.8313 13.7442 8.07117L21.4181 15.7645C21.6562 16.0049 21.7899 16.3296 21.7899 16.668C21.7899 17.0064 21.6562 17.3311 21.4181 17.5715L13.7442 25.2648C13.6286 25.3969 13.4872 25.5039 13.3287 25.5791C13.1701 25.6544 12.9978 25.6964 12.8224 25.7025C12.647 25.7085 12.4723 25.6786 12.3089 25.6145C12.1455 25.5503 11.997 25.4534 11.8726 25.3296C11.7482 25.2059 11.6504 25.0579 11.5854 24.8949C11.5204 24.7319 11.4896 24.5572 11.4947 24.3818C11.4998 24.2064 11.5409 24.0339 11.6153 23.8749C11.6897 23.716 11.796 23.574 11.9274 23.4577L18.6954 16.6607L11.9274 9.87822C11.7454 9.6975 11.6217 9.46641 11.5723 9.21473C11.5228 8.96306 11.5499 8.70233 11.6499 8.46618C11.75 8.23002 11.9186 8.02926 12.1338 7.88978C12.3491 7.75029 12.6012 7.67848 12.8576 7.6836Z" fill="white"/>
</svg>
